<?xml version="1.0" standalone="no"?>
<!DOCTYPE svg PUBLIC "-//W3C//DTD SVG 20010904//EN"
 "http://www.w3.org/TR/2001/REC-SVG-20010904/DTD/svg10.dtd">
<svg version="1.0" xmlns="http://www.w3.org/2000/svg"
 width="209.000000pt" height="209.000000pt" viewBox="0 0 209.000000 209.000000"
 preserveAspectRatio="xMidYMid meet">
<metadata>
Created by potrace 1.11, written by Peter Selinger 2001-2013
</metadata>
<g transform="translate(0.000000,209.000000) scale(0.100000,-0.100000)"
fill="#000000" stroke="none">
<path d="M839 2064 c-373 -67 -704 -374 -798 -740 -45 -171 -45 -401 -1 -561
77 -281 278 -522 545 -653 136 -67 236 -91 413 -97 244 -9 419 35 602 152 357
228 534 634 465 1062 -35 216 -133 400 -298 560 -161 156 -325 241 -536 278
-103 18 -290 18 -392 -1z m-170 -98 c-2 -2 -53 -37 -113 -77 -185 -123 -355
-314 -418 -470 -30 -75 -41 -84 -22 -19 62 215 231 413 447 521 89 44 119 57
106 45z m-28 -105 c-206 -127 -364 -299 -435 -476 -31 -75 -38 -78 -19 -8 50
194 206 378 407 479 109 55 132 57 47 5z m25 -67 c-192 -115 -333 -274 -402
-451 l-14 -38 5 40 c4 22 19 68 35 102 73 158 192 278 352 353 85 40 96 38 24
-6z m79 -32 c-6 -5 -41 -30 -80 -57 -148 -104 -274 -248 -324 -370 -26 -64
-27 -36 -2 38 52 151 171 279 339 363 70 35 83 40 67 26z m-29 -103 c-84 -51
-193 -152 -241 -225 -20 -31 -50 -90 -66 -132 -22 -59 -28 -68 -23 -37 23 162
143 317 307 399 96 48 108 45 23 -5z m79 -37 c-6 -4 -37 -26 -70 -47 -124 -83
-239 -227 -260 -323 -4 -18 -9 -31 -12 -29 -8 8 25 124 48 169 34 67 77 116
139 158 59 40 189 101 155 72z m5 -83 c-124 -76 -217 -178 -256 -282 -28 -75
-31 -53 -5 32 32 104 114 196 219 247 59 29 88 31 42 3z m30 -57 c-117 -81
-190 -167 -221 -259 l-20 -58 5 57 c5 69 45 147 94 188 31 25 149 90 162 89 3
0 -6 -8 -20 -17z m50 -56 c0 -2 -19 -15 -43 -29 -84 -49 -149 -138 -167 -227
-7 -33 -8 -33 -9 14 -2 92 57 173 163 222 55 26 56 26 56 20z m231 -30 c264
-62 355 -385 160 -574 -55 -54 -99 -77 -177 -92 -146 -29 -297 48 -364 185
-36 72 -40 198 -10 278 38 102 138 184 253 206 61 13 76 12 138 -3z m280 -583
c-24 -47 -63 -85 -116 -111 -69 -34 -94 -36 -43 -3 92 60 147 131 165 216 l8
40 3 -52 c2 -37 -3 -63 -17 -90z m86 78 c-13 -106 -93 -211 -202 -265 -31 -15
-59 -26 -61 -24 -2 2 25 23 61 46 107 71 195 193 195 272 0 11 3 20 6 20 4 0
4 -22 1 -49z m53 -72 c-30 -113 -114 -210 -227 -260 -36 -17 -67 -28 -69 -26
-2 2 20 20 49 40 116 76 225 198 242 270 4 15 9 26 12 23 2 -2 -1 -24 -7 -47z
m70 -28 c-16 -66 -74 -156 -136 -209 -48 -41 -181 -118 -190 -109 -2 2 23 21
55 41 123 75 234 202 263 298 16 55 23 39 8 -21z m51 -58 c-56 -142 -162 -253
-296 -310 -69 -29 -84 -24 -21 8 65 32 162 116 224 192 52 64 111 167 113 197
0 9 3 10 5 3 3 -6 -9 -46 -25 -90z m98 58 c-29 -128 -96 -235 -200 -319 -55
-45 -149 -103 -201 -124 -32 -13 -19 0 27 26 81 48 191 142 238 206 26 34 68
105 94 156 25 52 47 94 49 94 1 0 -2 -18 -7 -39z m52 -94 c-54 -163 -228 -340
-408 -415 -73 -31 -77 -27 -13 10 84 48 189 129 247 190 66 70 145 192 169
259 26 72 30 33 5 -44z m69 -12 c-62 -180 -217 -353 -399 -444 -101 -51 -108
-44 -16 17 188 124 339 285 402 429 15 34 28 61 30 59 2 -1 -6 -29 -17 -61z
m71 -18 c-67 -194 -164 -322 -331 -433 -56 -38 -230 -120 -230 -110 0 2 26 19
58 36 201 113 420 342 493 519 28 67 34 60 10 -12z"/>
<path d="M1000 1091 c-16 -32 4 -63 38 -59 24 3 27 7 27 38 0 31 -3 35 -27 38
-19 2 -30 -3 -38 -17z"/>
</g>
</svg>
